<svg xmlns="http://www.w3.org/2000/svg" viewBox="0 0 267.14 100.35"><defs><style>.cls-1{fill:#fff;}</style></defs><title>Element 1</title><g id="Ebene_2" data-name="Ebene 2"><g id="Ebene_1-2" data-name="Ebene 1"><path class="cls-1" d="M84.3,50.18h6.39a2.06,2.06,0,0,1,2.07,2.06V86.82A2.07,2.07,0,0,1,92,88.44a51.86,51.86,0,0,1-16.42,8.67,66.9,66.9,0,0,1-20.89,3.24,59.76,59.76,0,0,1-28-6.48,49.22,49.22,0,0,1-19.56-18A47.88,47.88,0,0,1,0,50.18,47.92,47.92,0,0,1,7.11,24.45a49.36,49.36,0,0,1,19.56-18A60.06,60.06,0,0,1,54.83,0,63.71,63.71,0,0,1,76.61,3.59a43.91,43.91,0,0,1,15.18,9.12,2.07,2.07,0,0,1,0,3l-3.91,3.81a2.06,2.06,0,0,1-2.76.1Q73.19,9.3,55.27,9.3a48.38,48.38,0,0,0-22.74,5.29A39.94,39.94,0,0,0,16.6,29.25a39,39,0,0,0-5.78,20.93A38.67,38.67,0,0,0,16.6,71,40.77,40.77,0,0,0,32.45,85.7a47.57,47.57,0,0,0,22.67,5.35q15.34,0,26.19-7a2.08,2.08,0,0,0,.93-1.74V52.24A2.06,2.06,0,0,1,84.3,50.18Z"/><path class="cls-1" d="M218.23,9.87H184.75a1.49,1.49,0,0,1-1.48-1.49V2.33A1.48,1.48,0,0,1,184.75.85h80.9a1.49,1.49,0,0,1,1.49,1.48V8.38a1.49,1.49,0,0,1-1.49,1.49H232.17a1.48,1.48,0,0,0-1.48,1.48V98a1.49,1.49,0,0,1-1.49,1.49h-8A1.49,1.49,0,0,1,219.72,98V11.35A1.49,1.49,0,0,0,218.23,9.87Z"/><path class="cls-1" d="M188.06,24.45a46.25,46.25,0,0,0-17.14-18,49.36,49.36,0,0,0-49,.07,46,46,0,0,0-17.21,18A53,53,0,0,0,98.5,50.18a52.89,52.89,0,0,0,6.19,25.65,46,46,0,0,0,17.21,18,49.36,49.36,0,0,0,49,.07,46.11,46.11,0,0,0,17.14-18,52.79,52.79,0,0,0,6.26-25.72A52.83,52.83,0,0,0,188.06,24.45ZM143.41,90.93a40.09,40.09,0,0,1-4-.5V9.92a40.09,40.09,0,0,1,4-.5Zm6-81.52a40.09,40.09,0,0,1,4,.49V90.45a37.35,37.35,0,0,1-4,.49ZM113,71.11a43.71,43.71,0,0,1-5-20.93,43.69,43.69,0,0,1,5-20.93,37.27,37.27,0,0,1,13.82-14.66,36.69,36.69,0,0,1,6.56-3.1V88.86a36.64,36.64,0,0,1-6.56-3.09A37.33,37.33,0,0,1,113,71.11Zm66.69,0A37,37,0,0,1,166,85.77a35.41,35.41,0,0,1-6.62,3.13V11.45A36.1,36.1,0,0,1,166,14.59a36.89,36.89,0,0,1,13.69,14.66,44.11,44.11,0,0,1,4.95,20.93A44.14,44.14,0,0,1,179.72,71.11Z"/></g></g></svg>